# xmcd CD database file
# Generated: Sun Oct 2 13:24:50 2005 by KSCD
# 
# Track frame offsets:
#       150
#       12460
#       24272
#       33810
#       44722
#       55332
#       67865
#       77250
#       87745
#       97910
#       107275
#       120620
#       132005
#       144022
#       154712
#       164877
#       183630
#       194505
#
# Disc length: 2733 seconds
#
# Revision: 11
# Processed by: cddbd v1.5.1PL0 Copyright (c) Steve Scherf et al.
# Submitted via: Kscd 1.3.3
#
DISCID=e40aab12
DTITLE=Various Artist - Curtis Mayfield's Chicago Soul
DYEAR=1900
DGENRE=
TTITLE0=You Can't Hurt Me No More--Opals
TTITLE1=What Would You Do--Walter Jackson
TTITLE2=I'm The One Who Loves You--Major Lance
TTITLE3=I Can't Work No Longer--Billy Butler and The Enchanters
TTITLE4=Good Times--Gene Chandler
TTITLE5=The Monkey Time--Major Lance
TTITLE6=Patty Cake--Artistics
TTITLE7=(I've Got A Feeling) You're Gonna Be Sorry--Billy Butler and The Enchant
TTITLE8=Think Nothing About It--Major Lance
TTITLE9=Nevertheless (I Love You)--Billy Butler and The Enchanters
TTITLE10=It's All Over--Walter Jackson
TTITLE11=Found True Love--Billy Butler and The Enchanters
TTITLE12=You'll Want Me Back--Major Lance
TTITLE13=That's What Mama Say--Walter Jackson
TTITLE14=Gotta Get Away--Billy Butler and The Enchanters
TTITLE15=Funny (Not Too Much)--Walter Jackson
TTITLE16=You're Gonna Be Sorry--Opals
TTITLE17=Gonna Get Married--Major Lance
EXTD=
EXTT0=
EXTT1=
EXTT2=
EXTT3=
EXTT4=
EXTT5=
EXTT6=
EXTT7=
EXTT8=
EXTT9=
EXTT10=
EXTT11=
EXTT12=
EXTT13=
EXTT14=
EXTT15=
EXTT16=
EXTT17=
PLAYORDER=
